HIERARCHY
ROOT root
{
	OFFSET 0.00 0.00 0.00
	CHANNELS 6 Xposition Yposition Zposition Zrotation Xrotation Yrotation
	JOINT lowerback
	{
		OFFSET 0 0 0
		CHANNELS 6 Xposition Yposition Zposition Zrotation Xrotation Yrotation
		JOINT upperback
		{
			OFFSET -0.214371 12.3768 -1.12219
			CHANNELS 6 Xposition Yposition Zposition Zrotation Xrotation Yrotation
			JOINT thorax
			{
				OFFSET -0.00137213 12.3873 0.296195
				CHANNELS 6 Xposition Yposition Zposition Zrotation Xrotation Yrotation
				JOINT lowerneck
				{
					OFFSET 0.0883157 12.5016 0.82912
					CHANNELS 6 Xposition Yposition Zposition Zrotation Xrotation Yrotation
					JOINT upperneck
					{
						OFFSET -1 10.1794 0.943522
						CHANNELS 6 Xposition Yposition Zposition Zrotation Xrotation Yrotation
						JOINT head
						{
							OFFSET 0.667525 10.2797 -1.57149
							CHANNELS 6 Xposition Yposition Zposition Zrotation Xrotation Yrotation
							End Site
							{
								OFFSET 0 10.47 0
							}
						}
					}
				}
				JOINT lclavicle
				{
					OFFSET 0.0883157 12.5016 0.82912
					CHANNELS 6 Xposition Yposition Zposition Zrotation Xrotation Yrotation
					JOINT lhumerus
					{
						OFFSET 20.61 4.45006 1.43784
						CHANNELS 6 Xposition Yposition Zposition Zrotation Xrotation Yrotation
						JOINT lradius
						{
							OFFSET 0 -30.3438 0
							CHANNELS 6 Xposition Yposition Zposition Zrotation Xrotation Yrotation
							JOINT lwrist
							{
								OFFSET 0 -18.964 0
								CHANNELS 6 Xposition Yposition Zposition Zrotation Xrotation Yrotation
								JOINT lhand
								{
									OFFSET 0 -9.48199 0
									CHANNELS 6 Xposition Yposition Zposition Zrotation Xrotation Yrotation
									JOINT lfingers
									{
										OFFSET 0 -3.17138 0
										CHANNELS 6 Xposition Yposition Zposition Zrotation Xrotation Yrotation
										End Site
										{
											OFFSET 0 -2.55685 0
										}
									}
								}
								JOINT lthumb
								{
									OFFSET 0 -9.48199 0
									CHANNELS 6 Xposition Yposition Zposition Zrotation Xrotation Yrotation
									End Site
									{
										OFFSET 0 -3.67114 0
									}
								}
							}
						}
					}
				}
				JOINT rclavicle
				{
					OFFSET 0.0883157 12.5016 0.82912
					CHANNELS 6 Xposition Yposition Zposition Zrotation Xrotation Yrotation
					JOINT rhumerus
					{
						OFFSET -20.61 4.45 1.44
						CHANNELS 6 Xposition Yposition Zposition Zrotation Xrotation Yrotation
						JOINT rradius
						{
							OFFSET 0 -29.5102 0
							CHANNELS 6 Xposition Yposition Zposition Zrotation Xrotation Yrotation
							JOINT rwrist
							{
								OFFSET 0 -19.2342 0
								CHANNELS 6 Xposition Yposition Zposition Zrotation Xrotation Yrotation
								JOINT rhand
								{
									OFFSET 0 -9.61712 0
									CHANNELS 6 Xposition Yposition Zposition Zrotation Xrotation Yrotation
									JOINT rfingers
									{
										OFFSET 0 -3.29215 0
										CHANNELS 6 Xposition Yposition Zposition Zrotation Xrotation Yrotation
										End Site
										{
											OFFSET 0 -2.557 0
										}
									}
								}
								JOINT rthumb
								{
									OFFSET 0 -9.61712 0
									CHANNELS 6 Xposition Yposition Zposition Zrotation Xrotation Yrotation
									End Site
									{
										OFFSET 0 -3.671 0
									}
								}
							}
						}
					}
				}
			}
		}
	}
	JOINT rfemur
	{
		OFFSET -8.46272 -9.62775 4.76248
		CHANNELS 6 Xposition Yposition Zposition Zrotation Xrotation Yrotation
		JOINT rtibia
		{
			OFFSET 1.00552e-005 -38.0331 0
			CHANNELS 6 Xposition Yposition Zposition Zrotation Xrotation Yrotation
			JOINT rfoot
			{
				OFFSET 1.14428e-005 -43.2815 0
				CHANNELS 6 Xposition Yposition Zposition Zrotation Xrotation Yrotation
				JOINT rtoes
				{
					OFFSET 0 -14.1868 -3.08763
					CHANNELS 6 Xposition Yposition Zposition Zrotation Xrotation Yrotation
					End Site
					{
						OFFSET 0 -7.27332 0
					}
				}
			}
		}
	}
	JOINT lfemur
	{
		OFFSET 9.10607 -9.62778 4.76249
		CHANNELS 6 Xposition Yposition Zposition Zrotation Xrotation Yrotation
		JOINT ltibia
		{
			OFFSET -1.01399e-005 -38.3535 0
			CHANNELS 6 Xposition Yposition Zposition Zrotation Xrotation Yrotation
			JOINT lfoot
			{
				OFFSET -1.12937e-005 -42.7176 0
				CHANNELS 6 Xposition Yposition Zposition Zrotation Xrotation Yrotation
				JOINT ltoes
				{
					OFFSET 0 -13.9965 -2.83857
					CHANNELS 6 Xposition Yposition Zposition Zrotation Xrotation Yrotation
					End Site
					{
						OFFSET 0 -7.16348 0
					}
				}
			}
		}
	}
}
MOTION
Frames: 4
Frame Time: 0.00833333
-0.802035	96.9635	138.199	-4.49182	1.59638	-5.01341	0 0 0 4.47355	2.35471	2.33982	-0.214371 12.3768 -1.12219 1.39757	-0.00138106	3.29357	-0.00137213 12.3873 0.296195 -1.16651	-1.1474	1.59769	0.0883157 12.5016 0.82912 -5.44644	-14.3681	-1.84166	-1 10.1794 0.943522 5.03238	14.9627	-2.20758	0.667525 10.2797 -1.57149 2.11676	7.51718	-1.02398	0.0883157 12.5016 0.82912 -15	0	-0	20.61 4.45006 1.43784 8.12539	13.5456	-157.316	0 -30.3438 0 -0	18.8448	-0	0 -18.964 0 1.26249e-014	-4.21689e-015	-126.94	0 -9.48199 0 1.22245	4.37968	-2.58917e-014	0 -3.17138 0 -0	7.12502	-0	0 -9.48199 0 25	15	-1.36605e-015	0.0883157 12.5016 0.82912 15	0	-0	-20.61 4.45 1.44 -15.2173	-9.80425	178.652	0 -29.5102 0 -0	42.0236	-0	0 -19.2342 0 4.46027e-016	-2.46178e-015	110.539	0 -9.61712 0 1.22	4.38	-0	0 -3.29215 0 -0	7.12502	-0	0 -9.61712 0 25	15	-7.97034e-015	-8.46272 -9.62775 4.76248 7.95561	16.2787	3.51535	1.00552e-005 -38.0331 0 -0	19.0483	-0	1.14428e-005 -43.2815 0 0.240451	-68.1548	0.240799	0 -14.1868 -3.08763 -0	-37.8966	-0	9.10607 -9.62778 4.76249 3.90454	-30.4115	1.68634	-1.01399e-005 -38.3535 0 -0	25.49	-0	-1.12937e-005 -42.7176 0 0.324157	-67.5248	0.36768	0 -13.9965 -2.83857 -0	-27.4966	-0
-0.724463	96.9868	139.332	-4.22767	1.53119	-4.90842	0 0 0 4.19805	2.32798	2.33305	-0.214371 12.3768 -1.12219 1.29848	-0.0422164	3.27604	-0.00137213 12.3873 0.296195 -1.11709	-1.18501	1.58952	0.0883157 12.5016 0.82912 -5.49631	-14.3241	-1.87063	-1 10.1794 0.943522 5.13134	15.0425	-2.2613	0.667525 10.2797 -1.57149 2.15235	7.53913	-1.04199	0.0883157 12.5016 0.82912 -15	0	-0	20.61 4.45006 1.43784 8.17893	13.4847	-157.172	0 -30.3438 0 -0	18.6852	-0	0 -18.964 0 1.26164e-014	-4.22814e-015	-127.055	0 -9.48199 0 1.22245	4.37968	-2.58917e-014	0 -3.17138 0 -0	7.12502	-0	0 -9.48199 0 25	15	-1.36605e-015	0.0883157 12.5016 0.82912 15	0	-0	-20.61 4.45 1.44 -15.0818	-9.34771	178.397	0 -29.5102 0 -0	42.0185	-0	0 -19.2342 0 4.47059e-016	-2.46453e-015	110.563	0 -9.61712 0 1.22	4.38	-0	0 -3.29215 0 -0	7.12502	-0	0 -9.61712 0 25	15	-7.97034e-015	-8.46272 -9.62775 4.76248 7.57843	15.9492	3.44627	1.00552e-005 -38.0331 0 -0	20.7891	-0	1.14428e-005 -43.2815 0 0.277248	-66.8598	0.282376	0 -14.1868 -3.08763 -0	-38.1614	-0	9.10607 -9.62778 4.76249 3.45375	-30.1447	1.88936	-1.01399e-005 -38.3535 0 -0	26.2689	-0	-1.12937e-005 -42.7176 0 0.0646078	-66.9309	0.0867827	0 -13.9965 -2.83857 -0	-26.636	-0
-0.643519	97.0159	140.458	-3.93885	1.46267	-4.80197	0 0 0 3.90355	2.31156	2.32496	-0.214371 12.3768 -1.12219 1.19208	-0.0837637	3.25655	-0.00137213 12.3873 0.296195 -1.06447	-1.22981	1.58055	0.0883157 12.5016 0.82912 -5.55438	-14.2699	-1.89801	-1 10.1794 0.943522 5.24078	15.1199	-2.31416	0.667525 10.2797 -1.57149 2.19306	7.55704	-1.05861	0.0883157 12.5016 0.82912 -15	0	-0	20.61 4.45006 1.43784 8.23573	13.4042	-157.084	0 -30.3438 0 -0	18.5654	-0	0 -18.964 0 1.26121e-014	-4.2339e-015	-127.114	0 -9.48199 0 1.22245	4.37968	-2.58917e-014	0 -3.17138 0 -0	7.12502	-0	0 -9.48199 0 25	15	-1.36605e-015	0.0883157 12.5016 0.82912 15	0	-0	-20.61 4.45 1.44 -14.9323	-8.8636	178.132	0 -29.5102 0 -0	41.9885	-0	0 -19.2342 0 4.47747e-016	-2.46636e-015	110.579	0 -9.61712 0 1.22	4.38	-0	0 -3.29215 0 -0	7.12502	-0	0 -9.61712 0 25	15	-7.97034e-015	-8.46272 -9.62775 4.76248 7.1688	15.4797	3.33711	1.00552e-005 -38.0331 0 -0	22.7181	-0	1.14428e-005 -43.2815 0 0.329434	-65.3908	0.342233	0 -14.1868 -3.08763 -0	-38.3166	-0	9.10607 -9.62778 4.76249 2.97305	-29.8412	2.03507	-1.01399e-005 -38.3535 0 -0	26.9985	-0	-1.12937e-005 -42.7176 0 -0.184669	-66.4499	-0.185118	0 -13.9965 -2.83857 -0	-25.7161	-0
-0.559111	97.0514	141.575	-3.62776	1.39129	-4.69941	0 0 0 3.59236	2.30663	2.31575	-0.214371 12.3768 -1.12219 1.07953	-0.124089	3.23541	-0.00137213 12.3873 0.296195 -1.00861	-1.28036	1.57091	0.0883157 12.5016 0.82912 -5.61612	-14.2099	-1.92209	-1 10.1794 0.943522 5.3541	15.1944	-2.36308	0.667525 10.2797 -1.57149 2.23628	7.57133	-1.07297	0.0883157 12.5016 0.82912 -15	0	-0	20.61 4.45006 1.43784 8.29399	13.305	-157.051	0 -30.3438 0 -0	18.4898	-0	0 -18.964 0 1.26119e-014	-4.2341e-015	-127.116	0 -9.48199 0 1.22245	4.37968	-2.58917e-014	0 -3.17138 0 -0	7.12502	-0	0 -9.48199 0 25	15	-1.36605e-015	0.0883157 12.5016 0.82912 15	0	-0	-20.61 4.45 1.44 -14.7713	-8.36382	177.862	0 -29.5102 0 -0	41.9314	-0	0 -19.2342 0 4.47962e-016	-2.46694e-015	110.584	0 -9.61712 0 1.22	4.38	-0	0 -3.29215 0 -0	7.12502	-0	0 -9.61712 0 25	15	-7.97034e-015	-8.46272 -9.62775 4.76248 6.72565	14.8743	3.19618	1.00552e-005 -38.0331 0 -0	24.8174	-0	1.14428e-005 -43.2815 0 0.390817	-63.7583	0.414501	0 -14.1868 -3.08763 -0	-38.3594	-0	9.10607 -9.62778 4.76249 2.46914	-29.4972	2.13764	-1.01399e-005 -38.3535 0 -0	27.6677	-0	-1.12937e-005 -42.7176 0 -0.428294	-66.0933	-0.452296	0 -13.9965 -2.83857 -0	-24.7567	-0
